<?xml version="1.0" encoding="UTF-8"?>
<svg id="Layer_1" xmlns="http://www.w3.org/2000/svg" xmlns:xlink="http://www.w3.org/1999/xlink" viewBox="0 0 70.02 70.02"><defs><style>.cls-1,.cls-2{fill:#f8f7f7;}.cls-1,.cls-3{stroke:#010101;stroke-miterlimit:10;stroke-width:.57px;}.cls-4{fill:#010101;}.cls-3{fill:none;}.cls-5{fill:url(#radial-gradient);}</style><radialGradient id="radial-gradient" cx="35.01" cy="28.04" fx="35.01" fy="28.04" r="19.18" gradientUnits="userSpaceOnUse"><stop offset=".32" stop-color="#008ec5" stop-opacity=".96"/><stop offset=".44" stop-color="#0091c4" stop-opacity=".7"/><stop offset=".56" stop-color="#0094c4" stop-opacity=".46"/><stop offset=".68" stop-color="#0097c4" stop-opacity=".29"/><stop offset=".77" stop-color="#0098c4" stop-opacity=".18"/><stop offset=".83" stop-color="#0099c4" stop-opacity=".14"/><stop offset=".87" stop-color="#73c7de" stop-opacity=".08"/><stop offset=".93" stop-color="#dcf1f6" stop-opacity=".02"/><stop offset="1" stop-color="#fff" stop-opacity="0"/></radialGradient></defs><circle class="cls-2" cx="35.01" cy="35.01" r="35.01"/><path class="cls-3" d="m35.21,10.62s8.58.09,13.76,1.06c.34.06,1.93.09,2.09,2.68.15,2.29,1.19,7.52.65,19.58-.56,12.69-4.84,24.79-4.84,24.79,0,0-.37,1.84-2.05,2.05-.03,0-.05,0-.08.01-.45.04-4.58.37-9.66.37h.07c-5.09,0-9.21-.33-9.66-.37-.03,0-.05,0-.08-.01-1.68-.2-2.05-2.05-2.05-2.05,0,0-4.28-12.09-4.84-24.79-.53-12.06.5-17.29.65-19.58.17-2.59,1.75-2.61,2.09-2.68,5.18-.97,13.76-1.06,13.76-1.06h.19Z"/><circle class="cls-3" cx="35.11" cy="37.59" r="1.89"/><line class="cls-3" x1="18.36" y1="27.63" x2="28.78" y2="27.63"/><line class="cls-3" x1="41.44" y1="27.63" x2="51.87" y2="27.63"/><line class="cls-3" x1="35.13" y1="10.62" x2="35.13" y2="21.28"/><line class="cls-3" x1="35.13" y1="39.49" x2="35.13" y2="44.28"/><line class="cls-3" x1="35.13" y1="33.96" x2="35.13" y2="35.7"/><path class="cls-3" d="m50.7,43.27c-4.73.64-10.02,1-15.59,1s-10.86-.36-15.59-1"/><line class="cls-3" x1="36.54" y1="53.79" x2="33.93" y2="53.79"/><line class="cls-3" x1="34.25" y1="53.79" x2="36.24" y2="53.79"/><path class="cls-3" d="m38.52,58.31s.38-.45.86-1.1c.55-.75,0-1.55-.42-2.2-.35-.54-1.27-1.02-1.58-1.16-.06-.03-.13-.05-.21-.05h-3.75c-.07,0-.14.02-.21.05-.31.15-1.23.62-1.58,1.16-.42.66-.97,1.45-.42,2.2.48.66.79,1.03.79,1.03"/><path class="cls-3" d="m36.81,59.02l1.89-.79s1.21-.66,3.17-2.12c1.27-.95,1.66-2.66,1.77-3.74.06-.57,0-1.14-.17-1.68l-.39-1.3c-.6-1.99-2.62-2.47-2.62-2.47h-10.21s-2.02.48-2.62,2.47l-.39,1.3c-.17.54-.22,1.12-.17,1.68.11,1.09.49,2.79,1.77,3.74,1.97,1.47,3.17,2.12,3.17,2.12l1.89.79h2.93Z"/><circle class="cls-5" cx="35.01" cy="28.04" r="19.18"/><circle class="cls-1" cx="35.11" cy="27.63" r="6.33"/><path class="cls-4" d="m32.52,30.08l2.96-3.99h0,0s-1.7,0-1.7,0l-.39-.58h3.21l-2.41,3.38,4.8-.82s.04.04.01.05l-6.48,1.97Z"/></svg>